<svg xmlns="http://www.w3.org/2000/svg" xmlns:xlink="http://www.w3.org/1999/xlink" width="500" zoomAndPan="magnify" viewBox="0 0 375 374.999991" height="500" preserveAspectRatio="xMidYMid meet" version="1.0"><defs><clipPath id="fa29ba12b1"><path d="M 15.53125 77.71875 L 359.582031 77.71875 L 359.582031 276.144531 L 15.53125 276.144531 Z M 15.53125 77.71875 " clip-rule="nonzero"/></clipPath><clipPath id="8cd82f2783"><path d="M 223.976562 140.460938 L 359.382812 140.460938 L 359.382812 275.867188 L 223.976562 275.867188 Z M 223.976562 140.460938 " clip-rule="nonzero"/></clipPath></defs><g clip-path="url(#fa29ba12b1)"><path fill="#000000" d="M 134.375 213.921875 L 89.339844 206.609375 L 117.722656 169.925781 C 132.433594 182.6875 134.265625 198.007812 134.375 213.921875 Z M 146.761719 216.605469 C 146.835938 215.015625 147.089844 212.457031 147.089844 210.667969 C 147.089844 192.515625 141.191406 174.878906 125.171875 160.21875 L 141.855469 140.34375 L 167.675781 218.714844 L 146.761719 216.601562 Z M 245.867188 138.605469 L 244.4375 134.246094 L 152.472656 134.125 L 176.933594 207.910156 L 177.992188 200.214844 L 175.175781 200.214844 L 175.53125 195.316406 L 187.839844 195.316406 L 187.484375 199.863281 L 184.320312 199.863281 L 183.617188 208.261719 C 183.617188 208.261719 245.515625 138.949219 245.867188 138.601562 Z M 286.597656 209.488281 C 274.25 199.726562 264.636719 190.425781 257.703125 171.808594 C 246.761719 181.683594 240.519531 195.96875 240.519531 210.667969 C 240.519531 239.855469 264.449219 263.660156 293.785156 263.660156 C 323.121094 263.660156 347.046875 239.855469 347.046875 210.667969 C 347.046875 181.476562 323.121094 157.671875 293.785156 157.671875 C 284.421875 157.671875 274.851562 160.363281 267.132812 164.894531 C 272.359375 181.320312 277.4375 189.789062 293.511719 202.664062 C 297.414062 202.828125 300.382812 205.945312 300.382812 209.660156 C 300.382812 213.515625 297.222656 216.660156 293.347656 216.660156 C 289.472656 216.660156 286.597656 213.515625 286.597656 209.488281 Z M 132.492188 225.179688 C 126.46875 247.515625 105.039062 263.664062 81.316406 263.664062 C 51.980469 263.664062 28.050781 239.855469 28.050781 210.667969 C 28.050781 181.476562 51.980469 157.671875 81.316406 157.671875 C 90.679688 157.671875 101.515625 159.871094 109.417969 164.472656 L 80.507812 202.664062 C 76.972656 202.71875 73.894531 205.863281 73.894531 209.660156 C 73.894531 213.515625 77.054688 216.660156 80.925781 216.660156 C 82 216.660156 83.125 216.386719 84.078125 215.941406 Z M 263.335938 152.628906 L 244.46875 100.835938 L 250.445312 90.6875 L 238.488281 77.742188 L 212.816406 77.742188 L 212.464844 85.089844 L 234.972656 85.089844 L 239.542969 89.988281 L 234.269531 99.4375 L 240.902344 122.828125 L 148.769531 122.828125 L 147.363281 118.550781 C 154.765625 117.59375 167.539062 113.054688 170.589844 110.417969 C 173.636719 107.78125 170.96875 105.355469 167.492188 105.242188 C 149.308594 104.476562 122.289062 102.960938 117.160156 102.9375 C 112.027344 102.914062 111.5 105.480469 114.9375 109.222656 C 118.371094 112.960938 121.375 116.324219 134.390625 118.332031 L 137.90625 127.78125 L 116.105469 154.652344 C 105.828125 148.445312 93.398438 145.214844 81.324219 145.214844 C 45.09375 145.214844 15.542969 174.617188 15.542969 210.664062 C 15.542969 246.710938 45.09375 276.113281 81.324219 276.113281 C 111.128906 276.113281 137.339844 255.660156 145.042969 227.394531 L 165.074219 230.976562 C 165.933594 233.324219 167.933594 235.128906 170.320312 236.539062 L 166.746094 253.398438 L 162.175781 253.398438 L 161.824219 257.949219 L 176.242188 258.648438 L 176.242188 253.75 L 172.726562 253.75 L 177.082031 236.898438 C 183.5625 235.84375 186.957031 230.324219 185.027344 224.84375 L 250.472656 151.199219 L 253.40625 159.097656 C 237.519531 171.546875 228.011719 190.722656 228.011719 210.664062 C 228.011719 246.710938 257.5625 276.109375 293.792969 276.109375 C 330.023438 276.109375 359.574219 246.710938 359.574219 210.664062 C 359.574219 174.617188 330.023438 145.214844 293.792969 145.214844 C 283.257812 145.214844 272.464844 147.773438 263.339844 152.625 Z M 263.335938 152.628906 " fill-opacity="1" fill-rule="evenodd"/></g><g clip-path="url(#8cd82f2783)"><path fill="#000000" d="M 354.128906 181.828125 C 350.71875 173.761719 345.832031 166.515625 339.613281 160.296875 C 333.394531 154.078125 326.152344 149.195312 318.085938 145.78125 C 309.730469 142.25 300.855469 140.457031 291.714844 140.457031 C 282.574219 140.457031 273.703125 142.25 265.34375 145.785156 C 257.277344 149.195312 250.035156 154.078125 243.816406 160.296875 C 237.597656 166.515625 232.710938 173.761719 229.300781 181.828125 C 225.765625 190.183594 223.972656 199.054688 223.972656 208.199219 C 223.972656 217.339844 225.765625 226.210938 229.300781 234.566406 C 232.714844 242.632812 237.597656 249.878906 243.816406 256.097656 C 250.035156 262.316406 257.277344 267.199219 265.347656 270.613281 C 273.703125 274.148438 282.574219 275.9375 291.714844 275.9375 C 300.859375 275.9375 309.730469 274.144531 318.085938 270.613281 C 326.152344 267.199219 333.398438 262.316406 339.617188 256.097656 C 345.835938 249.878906 350.71875 242.636719 354.128906 234.566406 C 357.664062 226.210938 359.457031 217.339844 359.457031 208.199219 C 359.457031 199.054688 357.664062 190.183594 354.128906 181.828125 Z M 354.128906 181.828125 " fill-opacity="1" fill-rule="nonzero"/></g><path fill="#ffffff" d="M 291.714844 269.347656 C 283.460938 269.347656 275.453125 267.730469 267.914062 264.539062 C 260.632812 261.460938 254.09375 257.050781 248.476562 251.4375 C 242.863281 245.820312 238.453125 239.28125 235.371094 232 C 232.183594 224.460938 230.566406 216.453125 230.566406 208.199219 C 230.566406 199.941406 232.183594 191.933594 235.371094 184.394531 C 238.453125 177.113281 242.863281 170.574219 248.476562 164.957031 C 254.09375 159.34375 260.632812 154.933594 267.914062 151.855469 C 275.453125 148.664062 283.460938 147.046875 291.714844 147.046875 C 299.96875 147.046875 307.976562 148.664062 315.519531 151.855469 C 322.800781 154.933594 329.339844 159.34375 334.953125 164.957031 C 340.570312 170.574219 344.976562 177.113281 348.058594 184.394531 C 351.246094 191.933594 352.863281 199.941406 352.863281 208.199219 C 352.863281 216.453125 351.246094 224.460938 348.058594 232 C 344.976562 239.28125 340.570312 245.820312 334.953125 251.4375 C 329.339844 257.050781 322.800781 261.460938 315.519531 264.539062 C 307.976562 267.730469 299.96875 269.347656 291.714844 269.347656 Z M 291.714844 149.84375 C 259.539062 149.84375 233.363281 176.023438 233.363281 208.199219 C 233.363281 240.371094 259.539062 266.550781 291.714844 266.550781 C 323.890625 266.550781 350.066406 240.371094 350.066406 208.199219 C 350.066406 176.023438 323.890625 149.84375 291.714844 149.84375 Z M 291.714844 149.84375 " fill-opacity="1" fill-rule="nonzero"/><path fill="#ffffff" d="M 330.667969 198.097656 C 330.667969 214.507812 318.363281 224.714844 298.6875 224.714844 L 283.855469 224.714844 L 283.855469 245.015625 L 266.816406 245.015625 L 266.816406 171.378906 L 298.691406 171.378906 C 318.363281 171.378906 330.667969 181.582031 330.667969 198.097656 Z M 313.417969 198.097656 C 313.417969 190 308.15625 185.265625 297.742188 185.265625 L 283.855469 185.265625 L 283.855469 210.828125 L 297.742188 210.828125 C 308.15625 210.828125 313.417969 206.09375 313.417969 198.097656 Z M 313.417969 198.097656 " fill-opacity="1" fill-rule="nonzero"/></svg>