<svg xmlns="http://www.w3.org/2000/svg" xmlns:xlink="http://www.w3.org/1999/xlink" width="40" zoomAndPan="magnify" viewBox="0 0 30 30.000001" height="40" preserveAspectRatio="xMidYMid meet" version="1.0"><defs><clipPath id="63a1002453"><path d="M 0.484375 0 L 29.515625 0 L 29.515625 29.03125 L 0.484375 29.03125 Z M 0.484375 0 " clip-rule="nonzero"/></clipPath><clipPath id="1b909faa2e"><path d="M 25 16 L 28.402344 16 L 28.402344 19.058594 L 25 19.058594 Z M 25 16 " clip-rule="nonzero"/></clipPath><clipPath id="459aa122d1"><path d="M 1.546875 9.625 L 25 9.625 L 25 19 L 1.546875 19 Z M 1.546875 9.625 " clip-rule="nonzero"/></clipPath></defs><g clip-path="url(#63a1002453)"><path fill="#ffffff" d="M 0.484375 0 L 29.515625 0 L 29.515625 29.03125 L 0.484375 29.03125 Z M 0.484375 0 " fill-opacity="1" fill-rule="nonzero"/><path fill="#ffffff" d="M 0.484375 0 L 29.515625 0 L 29.515625 29.03125 L 0.484375 29.03125 Z M 0.484375 0 " fill-opacity="1" fill-rule="nonzero"/></g><path fill="#3c5daa" d="M 6.742188 16.21875 L 5.855469 16.21875 L 5.855469 18.355469 L 6.484375 18.355469 L 6.484375 17.667969 L 6.761719 17.667969 C 7.289062 17.667969 7.554688 17.421875 7.554688 16.933594 C 7.554688 16.441406 7.265625 16.21875 6.742188 16.21875 M 6.484375 16.722656 L 6.546875 16.722656 C 6.777344 16.722656 6.910156 16.734375 6.910156 16.953125 C 6.910156 17.171875 6.773438 17.171875 6.546875 17.171875 L 6.484375 17.171875 Z M 6.484375 16.722656 " fill-opacity="1" fill-rule="nonzero"/><path fill="#3c5daa" d="M 8.65625 17.664062 C 8.65625 17.859375 8.597656 17.929688 8.433594 17.929688 C 8.273438 17.929688 8.214844 17.859375 8.214844 17.664062 L 8.214844 16.878906 L 7.625 16.878906 L 7.625 17.761719 C 7.625 18.183594 7.894531 18.402344 8.433594 18.402344 C 8.976562 18.402344 9.246094 18.1875 9.246094 17.761719 L 9.246094 16.878906 L 8.65625 16.878906 Z M 8.65625 17.664062 " fill-opacity="1" fill-rule="nonzero"/><path fill="#3c5daa" d="M 10.347656 16.835938 C 10.191406 16.835938 10.042969 16.882812 9.9375 16.976562 L 9.9375 16.019531 L 9.34375 16.019531 L 9.34375 18.363281 L 9.9375 18.363281 L 9.9375 18.265625 C 10.035156 18.355469 10.183594 18.410156 10.34375 18.410156 C 10.777344 18.410156 11.113281 18.066406 11.113281 17.628906 C 11.113281 17.1875 10.777344 16.84375 10.347656 16.84375 M 10.507812 17.621094 C 10.507812 17.792969 10.390625 17.902344 10.210938 17.902344 C 10.035156 17.902344 9.917969 17.792969 9.917969 17.621094 C 9.917969 17.449219 10.039062 17.339844 10.210938 17.339844 C 10.382812 17.339844 10.507812 17.457031 10.507812 17.621094 " fill-opacity="1" fill-rule="nonzero"/><path fill="#3c5daa" d="M 11.179688 18.359375 L 11.773438 18.359375 L 11.773438 16.015625 L 11.179688 16.015625 Z M 11.179688 18.359375 " fill-opacity="1" fill-rule="nonzero"/><path fill="#3c5daa" d="M 11.871094 18.359375 L 12.460938 18.359375 L 12.460938 16.878906 L 11.871094 16.878906 Z M 11.871094 18.359375 " fill-opacity="1" fill-rule="nonzero"/><path fill="#3c5daa" d="M 12.164062 16.0625 C 11.988281 16.0625 11.839844 16.203125 11.839844 16.375 C 11.839844 16.546875 11.988281 16.691406 12.164062 16.691406 C 12.34375 16.691406 12.492188 16.546875 12.492188 16.375 C 12.492188 16.203125 12.34375 16.0625 12.164062 16.0625 " fill-opacity="1" fill-rule="nonzero"/><path fill="#3c5daa" d="M 13.375 16.835938 C 12.882812 16.835938 12.523438 17.175781 12.523438 17.636719 C 12.523438 18.097656 12.890625 18.40625 13.351562 18.40625 C 13.8125 18.40625 13.617188 18.378906 13.730469 18.320312 L 13.75 18.3125 L 13.75 17.789062 L 13.691406 17.839844 C 13.632812 17.894531 13.542969 17.925781 13.460938 17.925781 C 13.269531 17.925781 13.136719 17.796875 13.136719 17.617188 C 13.136719 17.4375 13.273438 17.3125 13.449219 17.3125 C 13.628906 17.3125 13.609375 17.339844 13.695312 17.402344 L 13.753906 17.445312 L 13.753906 16.933594 L 13.734375 16.921875 C 13.632812 16.867188 13.503906 16.835938 13.375 16.835938 " fill-opacity="1" fill-rule="nonzero"/><path fill="#3c5daa" d="M 18.820312 16.21875 L 18.1875 16.21875 L 18.1875 18.359375 L 19.484375 18.359375 L 19.484375 17.832031 L 18.820312 17.832031 Z M 18.820312 16.21875 " fill-opacity="1" fill-rule="nonzero"/><path fill="#3c5daa" d="M 19.867188 16.0625 C 19.691406 16.0625 19.542969 16.203125 19.542969 16.375 C 19.542969 16.546875 19.691406 16.691406 19.867188 16.691406 C 20.042969 16.691406 20.191406 16.546875 20.191406 16.375 C 20.191406 16.203125 20.042969 16.0625 19.867188 16.0625 " fill-opacity="1" fill-rule="nonzero"/><path fill="#3c5daa" d="M 19.574219 18.359375 L 20.15625 18.359375 L 20.15625 16.878906 L 19.574219 16.878906 Z M 19.574219 18.359375 " fill-opacity="1" fill-rule="nonzero"/><path fill="#3c5daa" d="M 21.265625 16.835938 C 21.109375 16.835938 20.960938 16.882812 20.851562 16.976562 L 20.851562 16.019531 L 20.261719 16.019531 L 20.261719 18.363281 L 20.851562 18.363281 L 20.851562 18.265625 C 20.949219 18.355469 21.097656 18.410156 21.261719 18.410156 C 21.695312 18.410156 22.03125 18.066406 22.03125 17.628906 C 22.03125 17.1875 21.699219 16.84375 21.269531 16.84375 M 21.421875 17.621094 C 21.421875 17.792969 21.304688 17.902344 21.128906 17.902344 C 20.949219 17.902344 20.832031 17.792969 20.832031 17.621094 C 20.832031 17.449219 20.957031 17.339844 21.128906 17.339844 C 21.300781 17.339844 21.421875 17.457031 21.421875 17.621094 " fill-opacity="1" fill-rule="nonzero"/><path fill="#3c5daa" d="M 24.394531 16.96875 C 24.289062 16.882812 24.140625 16.835938 23.980469 16.835938 C 23.648438 16.835938 23.371094 17.046875 23.261719 17.347656 L 23.261719 16.882812 L 23.125 16.882812 C 22.9375 16.882812 22.789062 16.945312 22.6875 17.066406 L 22.6875 16.890625 L 22.097656 16.890625 L 22.097656 18.363281 L 22.6875 18.363281 L 22.6875 17.761719 C 22.6875 17.488281 22.785156 17.371094 23.007812 17.371094 C 23.230469 17.371094 23.144531 17.375 23.210938 17.414062 L 23.238281 17.433594 C 23.222656 17.492188 23.214844 17.558594 23.214844 17.628906 C 23.214844 18.070312 23.554688 18.410156 23.988281 18.410156 C 24.421875 18.410156 24.296875 18.359375 24.394531 18.265625 L 24.394531 18.363281 L 24.984375 18.363281 L 24.984375 16.890625 L 24.394531 16.890625 L 24.394531 16.980469 Z M 24.414062 17.621094 C 24.414062 17.792969 24.296875 17.902344 24.121094 17.902344 C 23.941406 17.902344 23.824219 17.792969 23.824219 17.621094 C 23.824219 17.449219 23.949219 17.339844 24.121094 17.339844 C 24.292969 17.339844 24.414062 17.457031 24.414062 17.621094 " fill-opacity="1" fill-rule="nonzero"/><g clip-path="url(#1b909faa2e)"><path fill="#3c5daa" d="M 27.628906 16.878906 L 27.269531 17.558594 L 26.90625 16.878906 L 26.261719 16.878906 C 26.261719 16.878906 26.121094 16.878906 26.121094 16.878906 C 25.9375 16.878906 25.789062 16.941406 25.683594 17.0625 L 25.683594 16.882812 L 25.09375 16.882812 L 25.09375 18.359375 L 25.683594 18.359375 L 25.683594 17.753906 C 25.683594 17.484375 25.785156 17.367188 26.003906 17.367188 C 26.226562 17.367188 26.140625 17.371094 26.207031 17.40625 L 26.261719 17.4375 L 26.261719 16.96875 L 26.945312 18.125 L 26.429688 19.054688 L 27.085938 19.054688 L 28.292969 16.875 L 27.625 16.875 Z M 27.628906 16.878906 " fill-opacity="1" fill-rule="nonzero"/></g><g clip-path="url(#459aa122d1)"><path fill="#3c5daa" d="M 10.417969 13.015625 L 12.089844 11.761719 L 12.089844 15.144531 Z M 6.464844 13.03125 C 6.265625 12.835938 6.078125 12.734375 5.820312 12.621094 C 6.078125 12.507812 6.261719 12.40625 6.464844 12.210938 C 6.609375 12.070312 6.691406 11.921875 6.753906 11.785156 L 6.753906 13.453125 C 6.699219 13.316406 6.609375 13.167969 6.464844 13.027344 M 4.683594 11.785156 C 4.53125 11.980469 4.273438 11.980469 4.050781 11.980469 L 3.695312 11.980469 L 3.695312 11.046875 L 4.058594 11.046875 C 4.1875 11.046875 4.398438 11.046875 4.519531 11.09375 C 4.621094 11.136719 4.777344 11.25 4.777344 11.503906 C 4.777344 11.753906 4.753906 11.699219 4.683594 11.777344 M 4.507812 14.140625 C 4.390625 14.1875 4.179688 14.1875 4.050781 14.1875 L 3.6875 14.1875 L 3.6875 13.253906 L 4.039062 13.253906 C 4.261719 13.253906 4.523438 13.253906 4.675781 13.449219 C 4.742188 13.53125 4.769531 13.621094 4.769531 13.726562 C 4.769531 13.976562 4.605469 14.089844 4.507812 14.132812 M 23.972656 12.015625 C 23.582031 11.503906 22.96875 11.460938 22.761719 11.460938 C 21.933594 11.460938 21.476562 12.007812 21.300781 12.199219 L 21.324219 11.535156 L 17.4375 11.535156 L 16.847656 13.640625 L 16.210938 11.535156 L 14.160156 11.535156 L 14.160156 9.625 L 12.085938 9.625 L 12.085938 11.558594 L 9.867188 11.558594 L 8.785156 12.386719 L 8.785156 9.625 L 6.742188 9.625 L 6.742188 10.726562 C 6.699219 10.605469 6.625 10.464844 6.519531 10.335938 C 6.394531 10.179688 6.238281 10.050781 6.074219 9.953125 C 5.566406 9.648438 5.039062 9.636719 4.453125 9.628906 L 1.648438 9.628906 L 1.648438 15.613281 L 4.453125 15.613281 C 5.035156 15.605469 5.5625 15.601562 6.078125 15.285156 C 6.246094 15.1875 6.398438 15.058594 6.527344 14.902344 C 6.632812 14.765625 6.703125 14.632812 6.746094 14.503906 L 6.746094 15.59375 L 8.78125 15.59375 L 8.78125 14.460938 L 9.011719 14.277344 L 10.128906 15.59375 L 12.085938 15.59375 C 12.085938 15.59375 14.160156 15.59375 14.160156 15.59375 L 14.160156 11.957031 L 15.769531 15.347656 L 14.273438 18.359375 L 16.472656 18.359375 L 19.375 12.007812 L 19.375 15.601562 L 21.457031 15.601562 L 21.457031 13.515625 C 21.457031 13.484375 21.433594 13.222656 21.609375 13.097656 C 21.695312 13.039062 21.785156 13.039062 21.820312 13.039062 C 21.925781 13.039062 22.136719 13.074219 22.1875 13.335938 C 22.195312 13.367188 22.195312 13.425781 22.195312 13.515625 L 22.195312 15.601562 L 24.265625 15.601562 L 24.265625 13.320312 C 24.265625 12.875 24.257812 12.40625 23.972656 12.023438 " fill-opacity="1" fill-rule="nonzero"/></g></svg>