<svg xmlns="http://www.w3.org/2000/svg" xmlns:xlink="http://www.w3.org/1999/xlink" width="40" zoomAndPan="magnify" viewBox="0 0 30 30.000001" height="40" preserveAspectRatio="xMidYMid meet" version="1.0"><defs><g/><clipPath id="dfbf61ce85"><path d="M 7 1.636719 L 23 1.636719 L 23 24 L 7 24 Z M 7 1.636719 " clip-rule="nonzero"/></clipPath><clipPath id="8d1507e2e3"><path d="M 4.535156 19 L 25.582031 19 L 25.582031 27 L 4.535156 27 Z M 4.535156 19 " clip-rule="nonzero"/></clipPath><clipPath id="a27488f74f"><path d="M 0.484375 9 L 29.515625 9 L 29.515625 17 L 0.484375 17 Z M 0.484375 9 " clip-rule="nonzero"/></clipPath><clipPath id="38dd1d7f73"><path d="M 0.484375 13 L 29.515625 13 L 29.515625 21 L 0.484375 21 Z M 0.484375 13 " clip-rule="nonzero"/></clipPath></defs><g clip-path="url(#dfbf61ce85)"><path fill="#ffe900" d="M 14.996094 1.988281 C 10.734375 1.988281 7.269531 5.453125 7.269531 9.71875 C 7.269531 12.925781 9.125 16.390625 10.9375 19.109375 C 12.75 21.828125 14.558594 23.792969 14.558594 23.792969 C 14.792969 24.046875 15.195312 24.046875 15.433594 23.792969 C 15.433594 23.792969 17.246094 21.828125 19.058594 19.109375 C 20.867188 16.390625 22.722656 12.925781 22.722656 9.71875 C 22.722656 5.453125 19.257812 1.988281 14.996094 1.988281 Z M 14.996094 3.179688 C 18.613281 3.179688 21.535156 6.097656 21.535156 9.71875 C 21.535156 12.449219 19.824219 15.820312 18.066406 18.453125 C 16.53125 20.757812 15.355469 22.019531 14.996094 22.421875 C 14.636719 22.019531 13.460938 20.757812 11.925781 18.453125 C 10.167969 15.820312 8.457031 12.449219 8.457031 9.71875 C 8.457031 6.097656 11.375 3.179688 14.996094 3.179688 Z M 14.996094 3.179688 " fill-opacity="1" fill-rule="nonzero"/></g><path fill="#ffe900" d="M 13.0625 6.570312 C 12.136719 6.570312 11.300781 6.933594 10.714844 7.527344 C 10.601562 7.636719 10.539062 7.785156 10.539062 7.941406 L 10.539062 13.101562 C 10.539062 13.632812 11.183594 13.898438 11.558594 13.519531 C 11.914062 13.160156 12.449219 12.917969 13.0625 12.917969 C 13.675781 12.917969 14.210938 13.160156 14.570312 13.519531 C 14.8125 13.765625 15.175781 13.757812 15.421875 13.511719 C 15.773438 13.15625 16.304688 12.917969 16.917969 12.917969 C 17.53125 12.917969 18.066406 13.160156 18.421875 13.519531 C 18.792969 13.894531 19.433594 13.628906 19.4375 13.101562 L 19.4375 7.941406 C 19.4375 7.785156 19.375 7.636719 19.269531 7.527344 C 18.683594 6.929688 17.839844 6.570312 16.917969 6.570312 C 16.195312 6.570312 15.527344 6.792969 14.988281 7.171875 C 14.425781 6.792969 13.71875 6.578125 13.0625 6.570312 Z M 13.0625 7.761719 C 13.597656 7.761719 14.046875 7.960938 14.398438 8.246094 L 14.398438 12.003906 C 13.988281 11.832031 13.539062 11.734375 13.0625 11.734375 C 12.585938 11.734375 12.136719 11.832031 11.730469 12.003906 L 11.730469 8.246094 C 12.078125 7.960938 12.527344 7.761719 13.0625 7.761719 Z M 16.917969 7.761719 C 17.449219 7.761719 17.902344 7.960938 18.25 8.246094 L 18.25 12.003906 C 17.84375 11.832031 17.390625 11.734375 16.917969 11.734375 C 16.441406 11.734375 15.992188 11.832031 15.585938 12.003906 L 15.585938 8.246094 C 15.929688 7.960938 16.382812 7.761719 16.917969 7.761719 Z M 16.917969 7.761719 " fill-opacity="1" fill-rule="nonzero"/><g clip-path="url(#8d1507e2e3)"><path fill="#ffe900" d="M 7.863281 19.824219 C 7.636719 19.824219 7.429688 19.953125 7.328125 20.15625 L 4.933594 25.0625 C 4.527344 25.894531 5.128906 26.957031 6.078125 26.957031 L 23.914062 26.957031 C 24.863281 26.957031 25.464844 25.894531 25.058594 25.0625 L 22.664062 20.15625 C 22.5625 19.953125 22.355469 19.824219 22.128906 19.824219 L 19.75 19.824219 C 19.421875 19.824219 19.15625 20.089844 19.15625 20.417969 C 19.15625 20.746094 19.421875 21.011719 19.75 21.011719 L 21.757812 21.011719 L 23.988281 25.585938 C 24.050781 25.710938 24.03125 25.765625 23.914062 25.765625 L 6.078125 25.765625 C 5.960938 25.765625 5.941406 25.710938 6.003906 25.585938 L 8.234375 21.011719 L 10.242188 21.011719 C 10.570312 21.011719 10.835938 20.746094 10.835938 20.417969 C 10.835938 20.089844 10.570312 19.824219 10.242188 19.824219 Z M 7.863281 19.824219 " fill-opacity="1" fill-rule="nonzero"/></g><g clip-path="url(#a27488f74f)"><path stroke-linecap="butt" transform="matrix(0.124399, 0, 0, 0.124399, 1.188181, 10.870834)" fill="none" stroke-linejoin="miter" d="M 13.182907 28.0117 C 20.970332 28.0117 26.810901 23.48997 26.810901 15.54554 C 26.810901 7.56971 20.970332 3.110781 13.151507 3.110781 L 2.004185 3.110781 L 2.004185 28.0117 Z M 9.571803 9.673571 L 13.182907 9.673571 C 17.202223 9.673571 19.14908 12.154242 19.14908 15.54554 C 19.14908 18.65423 16.919615 21.41751 13.151507 21.41751 L 9.571803 21.41751 Z M 48.383324 28.0117 L 48.383324 21.731519 L 37.047597 21.731519 L 37.047597 18.560027 L 48.100716 18.560027 L 48.100716 12.279846 L 37.047597 12.279846 L 37.047597 9.359562 L 48.383324 9.359562 L 48.383324 3.110781 L 29.479978 3.110781 L 29.479978 28.0117 Z M 68.731111 28.0117 L 68.731111 21.41751 L 59.279438 21.41751 L 59.279438 3.110781 L 51.743221 3.110781 L 51.743221 28.0117 Z M 79.281816 28.0117 L 79.281816 3.110781 L 71.745598 3.110781 L 71.745598 28.0117 Z M 99.284194 28.0117 L 108.484659 3.110781 L 99.943613 3.110781 L 94.542657 19.847464 L 89.173102 3.110781 L 80.632055 3.110781 L 89.80112 28.0117 Z M 128.706843 28.0117 L 128.706843 21.731519 L 117.371116 21.731519 L 117.371116 18.560027 L 128.455636 18.560027 L 128.455636 12.279846 L 117.371116 12.279846 L 117.371116 9.359562 L 128.706843 9.359562 L 128.706843 3.110781 L 109.803497 3.110781 L 109.803497 28.0117 Z M 154.361384 28.0117 L 149.839653 19.188045 C 151.817911 18.214617 154.298582 15.953752 154.298582 11.651828 C 154.298582 6.973093 151.189892 3.110781 145.349324 3.110781 L 132.06674 3.110781 L 132.06674 28.0117 L 139.602958 28.0117 L 139.602958 20.004469 L 142.334837 20.004469 L 145.757536 28.0117 Z M 146.668162 11.526224 C 146.668162 12.907864 145.474927 13.724288 144.18749 13.724288 L 139.602958 13.724288 L 139.602958 9.359562 L 144.18749 9.359562 C 145.474927 9.359562 146.668162 10.207386 146.668162 11.526224 Z M 164.912089 28.0117 L 164.912089 3.110781 L 157.375871 3.110781 L 157.375871 28.0117 Z M 192.921697 28.0117 L 192.921697 3.110781 L 185.354079 3.110781 L 185.354079 15.639743 L 176.71883 3.110781 L 168.931405 3.110781 L 168.931405 28.0117 L 176.499023 28.0117 L 176.499023 14.634914 L 185.668088 28.0117 Z M 195.590775 15.576941 C 195.590775 23.52137 201.776753 28.451313 209.312971 28.451313 C 214.180111 28.451313 217.916819 26.473056 220.680099 23.395767 L 220.680099 13.410279 L 208.559349 13.410279 L 208.559349 19.596257 L 213.363688 19.596257 L 213.363688 20.695289 C 212.39026 21.386109 210.914417 21.794321 209.312971 21.794321 C 205.670466 21.794321 203.252596 19.031041 203.252596 15.576941 C 203.252596 12.09144 205.670466 9.328161 209.312971 9.328161 C 211.416831 9.328161 213.08108 10.521395 213.897503 12.06004 L 220.240486 8.825746 C 218.513436 5.591453 215.090738 2.702569 209.312971 2.702569 C 201.776753 2.702569 195.590775 7.56971 195.590775 15.576941 Z M 195.590775 15.576941 " stroke="#ffe900" stroke-width="2.799998" stroke-opacity="1" stroke-miterlimit="4"/></g><g clip-path="url(#38dd1d7f73)"><path stroke-linecap="butt" transform="matrix(0.124399, 0, 0, 0.124399, 1.188181, 10.870834)" fill="none" stroke-linejoin="miter" d="M 26.936505 63.997139 L 26.936505 45.65901 L 33.593497 45.65901 L 33.593497 39.09622 L 12.711894 39.09622 L 12.711894 45.65901 L 19.400287 45.65901 L 19.400287 63.997139 Z M 34.943736 51.56238 C 34.943736 59.224201 40.878507 64.436752 48.571729 64.436752 C 56.233551 64.436752 62.168322 59.224201 62.168322 51.56238 C 62.168322 43.900559 56.233551 38.688008 48.571729 38.688008 C 40.878507 38.688008 34.943736 43.900559 34.943736 51.56238 Z M 54.537902 51.56238 C 54.537902 55.047881 52.182834 57.811161 48.571729 57.811161 C 44.929224 57.811161 42.574156 55.047881 42.574156 51.56238 C 42.574156 48.10828 44.929224 45.345001 48.571729 45.345001 C 52.182834 45.345001 54.537902 48.10828 54.537902 51.56238 Z M 63.518561 51.56238 C 63.518561 59.50681 69.673139 64.436752 77.209356 64.436752 C 82.107898 64.436752 85.844606 62.458495 88.607885 59.412607 L 88.607885 49.395718 L 76.487135 49.395718 L 76.487135 55.581696 L 81.291474 55.581696 L 81.291474 56.680728 C 80.318046 57.402949 78.842203 57.811161 77.209356 57.811161 C 73.598252 57.811161 71.180382 55.047881 71.180382 51.56238 C 71.180382 48.10828 73.598252 45.345001 77.209356 45.345001 C 79.344618 45.345001 81.008866 46.538235 81.825289 48.045479 L 88.168273 44.811185 C 86.441223 41.608293 83.018524 38.688008 77.209356 38.688008 C 69.673139 38.688008 63.518561 43.58655 63.518561 51.56238 Z M 110.871128 63.997139 L 110.871128 57.716958 L 99.504 57.716958 L 99.504 54.545466 L 110.58852 54.545466 L 110.58852 48.296686 L 99.504 48.296686 L 99.504 45.376402 L 110.871128 45.376402 L 110.871128 39.09622 L 91.967782 39.09622 L 91.967782 63.997139 Z M 127.105397 63.997139 L 127.105397 45.65901 L 133.730988 45.65901 L 133.730988 39.09622 L 112.880786 39.09622 L 112.880786 45.65901 L 119.537778 45.65901 L 119.537778 63.997139 Z M 160.421759 63.997139 L 160.421759 39.09622 L 152.885541 39.09622 L 152.885541 47.919875 L 143.967684 47.919875 L 143.967684 39.09622 L 136.431466 39.09622 L 136.431466 63.997139 L 143.967684 63.997139 L 143.967684 54.482665 L 152.885541 54.482665 L 152.885541 63.997139 Z M 183.344421 63.997139 L 183.344421 57.716958 L 172.008694 57.716958 L 172.008694 54.545466 L 183.093214 54.545466 L 183.093214 48.296686 L 172.008694 48.296686 L 172.008694 45.376402 L 183.344421 45.376402 L 183.344421 39.09622 L 164.441075 39.09622 L 164.441075 63.997139 Z M 208.998962 63.997139 L 204.477231 55.173484 C 206.455488 54.231457 208.93616 51.939191 208.93616 47.637267 C 208.93616 42.989933 205.82747 39.09622 199.986901 39.09622 L 186.704318 39.09622 L 186.704318 63.997139 L 194.240536 63.997139 L 194.240536 56.021309 L 196.972414 56.021309 L 200.395113 63.997139 Z M 201.30574 47.543064 C 201.30574 48.924704 200.112505 49.741128 198.825068 49.741128 L 194.240536 49.741128 L 194.240536 45.376402 L 198.825068 45.376402 C 200.112505 45.376402 201.30574 46.192825 201.30574 47.543064 Z M 201.30574 47.543064 " stroke="#ffe900" stroke-width="2.799998" stroke-opacity="1" stroke-miterlimit="4"/></g><g fill="#000000" fill-opacity="1"><g transform="translate(1.188181, 14.354013)"><g><path d="M 1.640625 0 C 2.609375 0 3.328125 -0.5625 3.328125 -1.546875 C 3.328125 -2.53125 2.609375 -3.09375 1.640625 -3.09375 L 0.25 -3.09375 L 0.25 0 Z M 1.1875 -2.28125 L 1.640625 -2.28125 C 2.140625 -2.28125 2.375 -1.96875 2.375 -1.546875 C 2.375 -1.15625 2.109375 -0.8125 1.640625 -0.8125 L 1.1875 -0.8125 Z M 1.1875 -2.28125 "/></g></g></g><g fill="#000000" fill-opacity="1"><g transform="translate(4.605875, 14.354013)"><g><path d="M 2.59375 0 L 2.59375 -0.78125 L 1.1875 -0.78125 L 1.1875 -1.171875 L 2.5625 -1.171875 L 2.5625 -1.953125 L 1.1875 -1.953125 L 1.1875 -2.3125 L 2.59375 -2.3125 L 2.59375 -3.09375 L 0.25 -3.09375 L 0.25 0 Z M 2.59375 0 "/></g></g></g><g fill="#000000" fill-opacity="1"><g transform="translate(7.373465, 14.354013)"><g><path d="M 2.359375 0 L 2.359375 -0.8125 L 1.1875 -0.8125 L 1.1875 -3.09375 L 0.25 -3.09375 L 0.25 0 Z M 2.359375 0 "/></g></g></g><g fill="#000000" fill-opacity="1"><g transform="translate(9.862437, 14.354013)"><g><path d="M 1.1875 0 L 1.1875 -3.09375 L 0.25 -3.09375 L 0.25 0 Z M 1.1875 0 "/></g></g></g><g fill="#000000" fill-opacity="1"><g transform="translate(11.301956, 14.354013)"><g><path d="M 2.234375 0 L 3.375 -3.09375 L 2.3125 -3.09375 L 1.640625 -1.015625 L 0.984375 -3.09375 L -0.078125 -3.09375 L 1.0625 0 Z M 2.234375 0 "/></g></g></g><g fill="#000000" fill-opacity="1"><g transform="translate(14.598917, 14.354013)"><g><path d="M 2.59375 0 L 2.59375 -0.78125 L 1.1875 -0.78125 L 1.1875 -1.171875 L 2.5625 -1.171875 L 2.5625 -1.953125 L 1.1875 -1.953125 L 1.1875 -2.3125 L 2.59375 -2.3125 L 2.59375 -3.09375 L 0.25 -3.09375 L 0.25 0 Z M 2.59375 0 "/></g></g></g><g fill="#000000" fill-opacity="1"><g transform="translate(17.366506, 14.354013)"><g><path d="M 3.015625 0 L 2.453125 -1.09375 C 2.703125 -1.21875 3.015625 -1.5 3.015625 -2.03125 C 3.015625 -2.609375 2.625 -3.09375 1.90625 -3.09375 L 0.25 -3.09375 L 0.25 0 L 1.1875 0 L 1.1875 -1 L 1.53125 -1 L 1.953125 0 Z M 2.0625 -2.046875 C 2.0625 -1.875 1.921875 -1.765625 1.765625 -1.765625 L 1.1875 -1.765625 L 1.1875 -2.3125 L 1.765625 -2.3125 C 1.921875 -2.3125 2.0625 -2.21875 2.0625 -2.046875 Z M 2.0625 -2.046875 "/></g></g></g><g fill="#000000" fill-opacity="1"><g transform="translate(20.514871, 14.354013)"><g><path d="M 1.1875 0 L 1.1875 -3.09375 L 0.25 -3.09375 L 0.25 0 Z M 1.1875 0 "/></g></g></g><g fill="#000000" fill-opacity="1"><g transform="translate(21.95439, 14.354013)"><g><path d="M 3.234375 0 L 3.234375 -3.09375 L 2.296875 -3.09375 L 2.296875 -1.53125 L 1.21875 -3.09375 L 0.25 -3.09375 L 0.25 0 L 1.1875 0 L 1.1875 -1.65625 L 2.328125 0 Z M 3.234375 0 "/></g></g></g><g fill="#000000" fill-opacity="1"><g transform="translate(25.437095, 14.354013)"><g><path d="M 0.078125 -1.546875 C 0.078125 -0.5625 0.84375 0.0625 1.78125 0.0625 C 2.390625 0.0625 2.859375 -0.1875 3.203125 -0.578125 L 3.203125 -1.8125 L 1.6875 -1.8125 L 1.6875 -1.046875 L 2.296875 -1.046875 L 2.296875 -0.90625 C 2.171875 -0.828125 1.984375 -0.765625 1.78125 -0.765625 C 1.34375 -0.765625 1.03125 -1.109375 1.03125 -1.546875 C 1.03125 -1.984375 1.34375 -2.3125 1.78125 -2.3125 C 2.046875 -2.3125 2.25 -2.171875 2.359375 -1.984375 L 3.140625 -2.390625 C 2.9375 -2.78125 2.5 -3.140625 1.78125 -3.140625 C 0.84375 -3.140625 0.078125 -2.53125 0.078125 -1.546875 Z M 0.078125 -1.546875 "/></g></g></g><g fill="#000000" fill-opacity="1"><g transform="translate(2.686803, 18.832387)"><g><path d="M 1.859375 0 L 1.859375 -2.28125 L 2.671875 -2.28125 L 2.671875 -3.09375 L 0.078125 -3.09375 L 0.078125 -2.28125 L 0.921875 -2.28125 L 0.921875 0 Z M 1.859375 0 "/></g></g></g><g fill="#000000" fill-opacity="1"><g transform="translate(5.44975, 18.832387)"><g><path d="M 0.078125 -1.546875 C 0.078125 -0.59375 0.828125 0.0625 1.78125 0.0625 C 2.734375 0.0625 3.46875 -0.59375 3.46875 -1.546875 C 3.46875 -2.5 2.734375 -3.140625 1.78125 -3.140625 C 0.828125 -3.140625 0.078125 -2.5 0.078125 -1.546875 Z M 2.515625 -1.546875 C 2.515625 -1.109375 2.234375 -0.765625 1.78125 -0.765625 C 1.328125 -0.765625 1.03125 -1.109375 1.03125 -1.546875 C 1.03125 -1.984375 1.328125 -2.3125 1.78125 -2.3125 C 2.234375 -2.3125 2.515625 -1.984375 2.515625 -1.546875 Z M 2.515625 -1.546875 "/></g></g></g><g fill="#000000" fill-opacity="1"><g transform="translate(9.006752, 18.832387)"><g><path d="M 0.078125 -1.546875 C 0.078125 -0.5625 0.84375 0.0625 1.78125 0.0625 C 2.390625 0.0625 2.859375 -0.1875 3.203125 -0.578125 L 3.203125 -1.8125 L 1.6875 -1.8125 L 1.6875 -1.046875 L 2.296875 -1.046875 L 2.296875 -0.90625 C 2.171875 -0.828125 1.984375 -0.765625 1.78125 -0.765625 C 1.34375 -0.765625 1.03125 -1.109375 1.03125 -1.546875 C 1.03125 -1.984375 1.34375 -2.3125 1.78125 -2.3125 C 2.046875 -2.3125 2.25 -2.171875 2.359375 -1.984375 L 3.140625 -2.390625 C 2.9375 -2.78125 2.5 -3.140625 1.78125 -3.140625 C 0.84375 -3.140625 0.078125 -2.53125 0.078125 -1.546875 Z M 0.078125 -1.546875 "/></g></g></g><g fill="#000000" fill-opacity="1"><g transform="translate(12.378011, 18.832387)"><g><path d="M 2.59375 0 L 2.59375 -0.78125 L 1.1875 -0.78125 L 1.1875 -1.171875 L 2.5625 -1.171875 L 2.5625 -1.953125 L 1.1875 -1.953125 L 1.1875 -2.3125 L 2.59375 -2.3125 L 2.59375 -3.09375 L 0.25 -3.09375 L 0.25 0 Z M 2.59375 0 "/></g></g></g><g fill="#000000" fill-opacity="1"><g transform="translate(15.145601, 18.832387)"><g><path d="M 1.859375 0 L 1.859375 -2.28125 L 2.671875 -2.28125 L 2.671875 -3.09375 L 0.078125 -3.09375 L 0.078125 -2.28125 L 0.921875 -2.28125 L 0.921875 0 Z M 1.859375 0 "/></g></g></g><g fill="#000000" fill-opacity="1"><g transform="translate(17.908547, 18.832387)"><g><path d="M 3.234375 0 L 3.234375 -3.09375 L 2.296875 -3.09375 L 2.296875 -2 L 1.1875 -2 L 1.1875 -3.09375 L 0.25 -3.09375 L 0.25 0 L 1.1875 0 L 1.1875 -1.1875 L 2.296875 -1.1875 L 2.296875 0 Z M 3.234375 0 "/></g></g></g><g fill="#000000" fill-opacity="1"><g transform="translate(21.395895, 18.832387)"><g><path d="M 2.59375 0 L 2.59375 -0.78125 L 1.1875 -0.78125 L 1.1875 -1.171875 L 2.5625 -1.171875 L 2.5625 -1.953125 L 1.1875 -1.953125 L 1.1875 -2.3125 L 2.59375 -2.3125 L 2.59375 -3.09375 L 0.25 -3.09375 L 0.25 0 Z M 2.59375 0 "/></g></g></g><g fill="#000000" fill-opacity="1"><g transform="translate(24.163485, 18.832387)"><g><path d="M 3.015625 0 L 2.453125 -1.09375 C 2.703125 -1.21875 3.015625 -1.5 3.015625 -2.03125 C 3.015625 -2.609375 2.625 -3.09375 1.90625 -3.09375 L 0.25 -3.09375 L 0.25 0 L 1.1875 0 L 1.1875 -1 L 1.53125 -1 L 1.953125 0 Z M 2.0625 -2.046875 C 2.0625 -1.875 1.921875 -1.765625 1.765625 -1.765625 L 1.1875 -1.765625 L 1.1875 -2.3125 L 1.765625 -2.3125 C 1.921875 -2.3125 2.0625 -2.21875 2.0625 -2.046875 Z M 2.0625 -2.046875 "/></g></g></g></svg>