<svg xmlns="http://www.w3.org/2000/svg" xmlns:xlink="http://www.w3.org/1999/xlink" width="40" zoomAndPan="magnify" viewBox="0 0 30 30.000001" height="40" preserveAspectRatio="xMidYMid meet" version="1.0"><defs><clipPath id="6c2a6a25c5"><path d="M 12 20 L 19 20 L 19 26.855469 L 12 26.855469 Z M 12 20 " clip-rule="nonzero"/></clipPath><clipPath id="2d7ed1fce1"><path d="M 12 19 L 19 19 L 19 26.855469 L 12 26.855469 Z M 12 19 " clip-rule="nonzero"/></clipPath><clipPath id="60650e7d14"><path d="M 7 2.175781 L 24 2.175781 L 24 15 L 7 15 Z M 7 2.175781 " clip-rule="nonzero"/></clipPath><clipPath id="1ff3627a44"><path d="M 7 2.175781 L 24.035156 2.175781 L 24.035156 16 L 7 16 Z M 7 2.175781 " clip-rule="nonzero"/></clipPath><clipPath id="28a9c04351"><path d="M 5.890625 7 L 12 7 L 12 11 L 5.890625 11 Z M 5.890625 7 " clip-rule="nonzero"/></clipPath><clipPath id="1dd4560179"><path d="M 7 2.175781 L 24 2.175781 L 24 6 L 7 6 Z M 7 2.175781 " clip-rule="nonzero"/></clipPath><clipPath id="620d627698"><path d="M 7 2.175781 L 24.035156 2.175781 L 24.035156 6 L 7 6 Z M 7 2.175781 " clip-rule="nonzero"/></clipPath></defs><g clip-path="url(#6c2a6a25c5)"><path fill="#ffffff" d="M 13.824219 26.257812 C 13.554688 26.257812 13.320312 26.082031 13.246094 25.820312 L 13.238281 25.792969 C 12.890625 24.554688 12.890625 23.0625 13.238281 21.804688 L 13.519531 20.792969 C 13.589844 20.535156 13.828125 20.355469 14.097656 20.355469 L 17.148438 20.355469 C 17.417969 20.355469 17.652344 20.535156 17.726562 20.792969 L 18.007812 21.800781 C 18.359375 23.0625 18.355469 24.566406 18 25.820312 C 17.925781 26.082031 17.6875 26.257812 17.421875 26.257812 Z M 13.824219 26.257812 " fill-opacity="1" fill-rule="nonzero"/></g><g clip-path="url(#2d7ed1fce1)"><path fill="#e00079" d="M 17.148438 20.957031 L 17.429688 21.964844 C 17.761719 23.164062 17.734375 24.546875 17.417969 25.65625 L 13.824219 25.65625 C 13.824219 25.648438 13.820312 25.640625 13.816406 25.628906 C 13.488281 24.449219 13.515625 23.066406 13.816406 21.964844 L 14.097656 20.957031 L 17.148438 20.957031 M 17.148438 19.753906 L 14.097656 19.753906 C 13.558594 19.753906 13.085938 20.113281 12.9375 20.632812 L 12.65625 21.640625 C 12.65625 21.640625 12.65625 21.644531 12.65625 21.644531 C 12.285156 23.003906 12.285156 24.613281 12.65625 25.953125 C 12.660156 25.96875 12.667969 25.980469 12.671875 25.992188 C 12.820312 26.507812 13.289062 26.859375 13.824219 26.859375 L 17.417969 26.859375 C 17.957031 26.859375 18.429688 26.503906 18.578125 25.988281 C 18.960938 24.625 18.964844 23 18.585938 21.640625 L 18.304688 20.632812 C 18.160156 20.113281 17.6875 19.753906 17.148438 19.753906 Z M 17.148438 19.753906 " fill-opacity="1" fill-rule="nonzero"/></g><g clip-path="url(#60650e7d14)"><path fill="#ffffff" d="M 15.703125 14.773438 C 14.769531 14.773438 10.230469 14.6875 9.925781 13.050781 C 8.699219 11.332031 7.921875 5.722656 7.921875 5 C 7.921875 3.757812 9.25 2.78125 10.949219 2.78125 L 20.457031 2.78125 C 22.15625 2.78125 23.484375 3.757812 23.484375 5 C 23.484375 5.722656 22.707031 11.332031 21.484375 13.050781 C 21.179688 14.6875 16.640625 14.773438 15.703125 14.773438 Z M 15.703125 14.773438 " fill-opacity="1" fill-rule="nonzero"/></g><g clip-path="url(#1ff3627a44)"><path fill="#e00079" d="M 20.457031 3.382812 C 21.796875 3.382812 22.882812 4.105469 22.882812 5 C 22.882812 5.792969 22.027344 11.558594 20.894531 12.828125 C 20.894531 12.84375 20.898438 12.859375 20.898438 12.875 C 20.898438 13.589844 18.574219 14.171875 15.703125 14.171875 C 12.835938 14.171875 10.507812 13.589844 10.507812 12.875 C 10.507812 12.859375 10.511719 12.84375 10.515625 12.828125 C 9.382812 11.558594 8.523438 5.792969 8.523438 5 C 8.523438 4.105469 9.609375 3.382812 10.949219 3.382812 L 20.457031 3.382812 M 20.457031 2.179688 L 10.949219 2.179688 C 8.914062 2.179688 7.320312 3.417969 7.320312 5 C 7.320312 5.535156 7.566406 7.304688 7.917969 8.980469 C 8.488281 11.714844 9.039062 12.828125 9.375 13.320312 C 9.476562 13.660156 9.726562 14.074219 10.304688 14.414062 C 10.667969 14.628906 11.148438 14.8125 11.738281 14.957031 C 12.8125 15.226562 14.222656 15.375 15.703125 15.375 C 17.1875 15.375 18.59375 15.226562 19.667969 14.957031 C 20.257812 14.8125 20.738281 14.628906 21.101562 14.414062 C 21.679688 14.074219 21.929688 13.660156 22.035156 13.320312 C 22.367188 12.828125 22.917969 11.710938 23.492188 8.980469 C 23.84375 7.304688 24.085938 5.535156 24.085938 5 C 24.085938 3.417969 22.492188 2.179688 20.457031 2.179688 Z M 20.457031 2.179688 " fill-opacity="1" fill-rule="nonzero"/></g><path fill="#ffffff" d="M 15.703125 21.5625 C 12.859375 21.5625 9.65625 20.816406 9.140625 19.183594 C 9.097656 19.097656 9.074219 19.003906 9.074219 18.902344 L 9.074219 16.394531 C 9.074219 16.0625 9.34375 15.792969 9.675781 15.792969 L 21.734375 15.792969 C 22.066406 15.792969 22.335938 16.0625 22.335938 16.394531 L 22.335938 18.902344 C 22.335938 19.003906 22.308594 19.097656 22.265625 19.183594 C 21.75 20.816406 18.550781 21.5625 15.703125 21.5625 Z M 15.703125 21.5625 " fill-opacity="1" fill-rule="nonzero"/><path fill="#e00079" d="M 21.734375 16.394531 L 21.734375 18.902344 L 21.71875 18.902344 C 21.492188 20.050781 18.886719 20.960938 15.703125 20.960938 C 12.523438 20.960938 9.917969 20.050781 9.691406 18.902344 L 9.675781 18.902344 L 9.675781 16.394531 L 21.734375 16.394531 M 21.734375 15.191406 L 9.675781 15.191406 C 9.007812 15.191406 8.472656 15.730469 8.472656 16.394531 L 8.472656 18.902344 C 8.472656 19.085938 8.511719 19.261719 8.585938 19.417969 C 8.820312 20.085938 9.480469 20.910156 11.199219 21.5 C 12.441406 21.925781 14.039062 22.164062 15.703125 22.164062 C 17.367188 22.164062 18.96875 21.925781 20.210938 21.5 C 21.925781 20.910156 22.585938 20.085938 22.820312 19.417969 C 22.894531 19.261719 22.9375 19.085938 22.9375 18.902344 L 22.9375 16.394531 C 22.9375 15.730469 22.398438 15.191406 21.734375 15.191406 Z M 21.734375 15.191406 " fill-opacity="1" fill-rule="nonzero"/><path fill="#ffffff" d="M 15.703125 19.722656 C 12.519531 19.722656 9.933594 18.839844 9.652344 17.660156 L 9.628906 17.660156 L 9.628906 16.808594 L 21.78125 16.808594 L 21.78125 17.660156 L 21.753906 17.660156 C 21.472656 18.839844 18.890625 19.722656 15.703125 19.722656 Z M 15.703125 19.722656 " fill-opacity="1" fill-rule="nonzero"/><path fill="#e00079" d="M 21.734375 16.855469 L 21.734375 17.617188 L 21.71875 17.617188 C 21.492188 18.765625 18.886719 19.675781 15.703125 19.675781 C 12.523438 19.675781 9.917969 18.765625 9.691406 17.617188 L 9.675781 17.617188 L 9.675781 16.855469 L 21.734375 16.855469 M 21.824219 16.761719 L 9.582031 16.761719 L 9.582031 17.707031 L 9.617188 17.707031 C 9.945312 18.886719 12.53125 19.765625 15.703125 19.765625 C 18.878906 19.765625 21.460938 18.886719 21.789062 17.707031 L 21.824219 17.707031 Z M 21.824219 16.761719 " fill-opacity="1" fill-rule="nonzero"/><path fill="#ffffff" d="M 15.703125 19.21875 C 12.410156 19.21875 9.074219 18.246094 9.074219 16.394531 C 9.074219 14.539062 12.410156 13.570312 15.703125 13.570312 C 19 13.570312 22.335938 14.539062 22.335938 16.394531 C 22.335938 18.246094 19 19.21875 15.703125 19.21875 Z M 15.703125 19.21875 " fill-opacity="1" fill-rule="nonzero"/><path fill="#e00079" d="M 15.703125 14.171875 C 19.035156 14.171875 21.734375 15.167969 21.734375 16.394531 C 21.734375 17.621094 19.035156 18.617188 15.703125 18.617188 C 12.375 18.617188 9.675781 17.621094 9.675781 16.394531 C 9.675781 15.167969 12.375 14.171875 15.703125 14.171875 M 15.703125 12.96875 C 13.953125 12.96875 12.292969 13.226562 11.023438 13.695312 C 8.804688 14.511719 8.472656 15.738281 8.472656 16.394531 C 8.472656 17.050781 8.804688 18.273438 11.023438 19.09375 C 12.292969 19.5625 13.953125 19.820312 15.703125 19.820312 C 17.453125 19.820312 19.113281 19.5625 20.382812 19.09375 C 22.605469 18.273438 22.9375 17.050781 22.9375 16.394531 C 22.9375 15.738281 22.605469 14.511719 20.382812 13.695312 C 19.113281 13.226562 17.453125 12.96875 15.703125 12.96875 Z M 15.703125 12.96875 " fill-opacity="1" fill-rule="nonzero"/><path fill="#ffffff" d="M 7.09375 9.785156 C 6.761719 9.785156 6.492188 9.515625 6.492188 9.183594 L 6.492188 8.371094 C 6.492188 8.039062 6.761719 7.769531 7.09375 7.769531 L 10.355469 7.769531 C 10.6875 7.769531 10.957031 8.039062 10.957031 8.371094 L 10.957031 9.183594 C 10.957031 9.515625 10.6875 9.785156 10.355469 9.785156 Z M 7.09375 9.785156 " fill-opacity="1" fill-rule="nonzero"/><g clip-path="url(#28a9c04351)"><path fill="#e00079" d="M 10.355469 8.371094 L 10.355469 9.183594 L 7.09375 9.183594 L 7.09375 8.371094 L 10.355469 8.371094 M 10.355469 7.167969 L 7.09375 7.167969 C 6.429688 7.167969 5.890625 7.707031 5.890625 8.371094 L 5.890625 9.183594 C 5.890625 9.847656 6.429688 10.386719 7.09375 10.386719 L 10.355469 10.386719 C 11.019531 10.386719 11.558594 9.847656 11.558594 9.183594 L 11.558594 8.371094 C 11.558594 7.707031 11.019531 7.167969 10.355469 7.167969 Z M 10.355469 7.167969 " fill-opacity="1" fill-rule="nonzero"/></g><g clip-path="url(#1dd4560179)"><path fill="#ffffff" d="M 8.574219 5.273438 C 8.382812 5.273438 8.203125 5.183594 8.089844 5.027344 C 7.976562 4.875 7.941406 4.675781 8 4.492188 C 8.308594 3.484375 9.523438 2.78125 10.949219 2.78125 L 20.457031 2.78125 C 21.882812 2.78125 23.097656 3.484375 23.410156 4.492188 C 23.464844 4.675781 23.433594 4.875 23.320312 5.027344 C 23.207031 5.183594 23.027344 5.273438 22.835938 5.273438 Z M 8.574219 5.273438 " fill-opacity="1" fill-rule="nonzero"/></g><g clip-path="url(#620d627698)"><path fill="#e00079" d="M 20.457031 3.382812 C 21.628906 3.382812 22.605469 3.9375 22.835938 4.671875 L 8.574219 4.671875 C 8.800781 3.9375 9.777344 3.382812 10.949219 3.382812 L 20.457031 3.382812 M 20.457031 2.179688 L 10.949219 2.179688 C 10.179688 2.179688 9.445312 2.359375 8.828125 2.695312 C 8.125 3.082031 7.628906 3.65625 7.421875 4.316406 C 7.3125 4.679688 7.378906 5.078125 7.605469 5.386719 C 7.832031 5.691406 8.191406 5.875 8.574219 5.875 L 22.835938 5.875 C 23.214844 5.875 23.574219 5.691406 23.804688 5.386719 C 24.03125 5.078125 24.097656 4.679688 23.984375 4.316406 C 23.78125 3.65625 23.28125 3.082031 22.578125 2.695312 C 21.960938 2.359375 21.230469 2.179688 20.457031 2.179688 Z M 20.457031 2.179688 " fill-opacity="1" fill-rule="nonzero"/></g></svg>